<svg id="Group_10" data-name="Group 10" xmlns="http://www.w3.org/2000/svg" xmlns:xlink="http://www.w3.org/1999/xlink" width="123.753" height="137.5" viewBox="0 0 123.753 137.5">
  <defs>
    <clipPath id="clip-path">
      <rect id="Rectangle_41" data-name="Rectangle 41" width="123.753" height="137.5" fill="#fff"/>
    </clipPath>
  </defs>
  <path id="Path_54" data-name="Path 54" d="M60.439,22.157v9.119l40.935,23.492v4.839L82.751,69.937,64.128,59.608V53.187H60.439v8.579L82.751,74.141l22.313-12.375V52.637L64.128,29.145V24.316l18.623-10.33,18.623,10.33v6.421h3.689V22.157L82.751,9.783ZM82.747,0,68.009,8.509l0,0L53.266,17.024V66.538l14.745,8.511,0,0,14.738,8.509,29.488-17.021V39.573H101.442v3.689h7.1v21.16l-12.9,7.447v0l-12.9,7.445-25.8-14.891V19.136l25.8-14.891,12.9,7.445v0l12.9,7.446V30.66h3.689V17.021Z" transform="translate(-20.874)" fill="#fff"/>
  <g id="Group_14" data-name="Group 14">
    <g id="Group_13" data-name="Group 13" clip-path="url(#clip-path)">
      <path id="Path_55" data-name="Path 55" d="M116.535,152.3v20.524c0,.182.124.275.369.275h3.061c.234,0,.348-.094.348-.275V152.3h3.44v20.643a3.5,3.5,0,0,1-.972,2.635,3.4,3.4,0,0,1-2.531.93H116.6a3.383,3.383,0,0,1-2.526-.93,3.5,3.5,0,0,1-.977-2.635V152.3Zm-13.99,0a3.456,3.456,0,0,1,2.558.941,3.522,3.522,0,0,1,.946,2.619v3.976a6.426,6.426,0,0,1-.67,3.212,2.634,2.634,0,0,1-2.178,1.357,2.608,2.608,0,0,1,2.178,1.356,6.425,6.425,0,0,1,.67,3.212v7.536h-3.441V168.62a2.852,2.852,0,0,0-.5-1.965,2.6,2.6,0,0,0-1.934-.545H98.83v10.4H95.389V152.3ZM98.83,162.7h1.34a2.579,2.579,0,0,0,1.934-.551,2.832,2.832,0,0,0,.5-1.964v-4.2c0-.171-.114-.26-.348-.26H98.83Zm-9.6,13.809H80.012V152.3h9.215v3.425H83.458V162.7h5.769v3.41H83.458v6.99h5.769Zm-21.254-3.8.868-8.362,1.7-12.042h3.306L70.457,176.51H65.477L62.063,152.3h3.321l1.705,12.042ZM53,152.3h3.456V176.51H53Zm-10.429,0a3.453,3.453,0,0,1,2.557.941,3.52,3.52,0,0,1,.946,2.619v3.976a6.433,6.433,0,0,1-.67,3.212,2.634,2.634,0,0,1-2.178,1.357,2.608,2.608,0,0,1,2.178,1.356,6.431,6.431,0,0,1,.67,3.212v7.536H42.629V168.62a2.852,2.852,0,0,0-.5-1.965,2.6,2.6,0,0,0-1.933-.545H38.851v10.4H35.41V152.3Zm-3.716,10.4h1.341a2.578,2.578,0,0,0,1.933-.551,2.832,2.832,0,0,0,.5-1.964v-4.2c0-.171-.114-.26-.348-.26h-3.43Zm-17.69,0h1.325a2.579,2.579,0,0,0,1.934-.551,2.832,2.832,0,0,0,.5-1.964V152.3h3.44v7.536a6.426,6.426,0,0,1-.67,3.212,2.414,2.414,0,0,1-1.855,1.357,2.387,2.387,0,0,1,1.855,1.356,6.425,6.425,0,0,1,.67,3.212v7.536h-3.44V168.62a2.852,2.852,0,0,0-.5-1.965,2.6,2.6,0,0,0-1.934-.545H21.161v10.4H17.705V152.3h3.456ZM.016,155.861a3.548,3.548,0,0,1,.962-2.63,3.412,3.412,0,0,1,2.541-.93H7.173a3.4,3.4,0,0,1,2.526.93,3.53,3.53,0,0,1,.961,2.63v4.891H7.22v-4.766c0-.171-.12-.26-.348-.26H3.81c-.234,0-.354.088-.354.26v3.851a2.548,2.548,0,0,0,.992,2.069,7.2,7.2,0,0,0,1.113.717c.161.083.374.192.639.338l.67.333a8.11,8.11,0,0,1,2.572,1.9,5.714,5.714,0,0,1,1.217,3.778v3.97a3.511,3.511,0,0,1-.961,2.635,3.416,3.416,0,0,1-2.526.93H3.5a3.436,3.436,0,0,1-2.541-.93A3.53,3.53,0,0,1,0,172.944v-4.885H3.441v4.766c0,.182.119.275.353.275H6.871c.229,0,.348-.094.348-.275v-3.851a2.345,2.345,0,0,0-.977-1.9,7.325,7.325,0,0,0-1.107-.718c-.156-.083-.375-.192-.655-.338l-.67-.364a8.507,8.507,0,0,1-2.589-1.964,5.957,5.957,0,0,1-1.206-3.851Z" transform="translate(0 -59.684)" fill="#fff"/>
      <path id="Path_56" data-name="Path 56" d="M110.845,218.074l1.755-12.465h2.559l1.755,12.465H115.2l-.431-3.112h-1.787l-.431,3.112Zm3.035-11.023-.455,4.194-.187,1.969h1.284l-.2-1.969Zm-7.776.455c0-.088-.058-.134-.179-.134h-1.757l.008,3.592h.69a1.3,1.3,0,0,0,.979-.284,1.456,1.456,0,0,0,.26-1.011Zm-1.929,8.812h.674a1.359,1.359,0,0,0,1-.283,1.563,1.563,0,0,0,.268-1.02v-1a1.471,1.471,0,0,0-.26-1.012,1.343,1.343,0,0,0-1-.281h-.69Zm-1.772-10.71h3.669a1.765,1.765,0,0,1,1.312.479,1.826,1.826,0,0,1,.493,1.354v2.047a3.31,3.31,0,0,1-.345,1.653,1.313,1.313,0,0,1-1.1.7,1.344,1.344,0,0,1,1.121.7,3.309,3.309,0,0,1,.345,1.653v.822a3.334,3.334,0,0,1-.691,2.251,3.055,3.055,0,0,1-2.352.808H102.4Zm-5.351,0h1.779v12.465H97.052Zm-7.235,12.465a1.769,1.769,0,0,1-1.309-.479,1.818,1.818,0,0,1-.5-1.357v-8.8a1.828,1.828,0,0,1,.5-1.354,1.759,1.759,0,0,1,1.309-.479h1.865a1.764,1.764,0,0,1,1.311.479,1.826,1.826,0,0,1,.493,1.354v2.518H91.721v-2.454c0-.088-.059-.134-.179-.134H89.966c-.12,0-.182.046-.182.134v8.671c0,.094.062.142.182.142h1.576c.12,0,.179-.048.179-.142v-2.454h1.764v2.515a1.816,1.816,0,0,1-.493,1.357,1.774,1.774,0,0,1-1.311.479Zm-4.977,0H80.095V205.609h4.745v1.764h-2.97v3.592h2.97v1.755h-2.97v3.6h2.97ZM74.76,205.609h1.779v12.465H74.76Zm-7.35,0,1.826,6.168.369,1.56-.118-2.037v-5.692H71.2v12.465H69.548L67.731,211.9l-.369-1.715.118,2.194v5.692h-1.71V205.609Zm-8.985,10.71h.69a1.328,1.328,0,0,0,1-.283,1.477,1.477,0,0,0,.26-1.02v-7.509c0-.088-.061-.134-.187-.134H58.425Zm-1.771,1.756V205.609h3.685a1.757,1.757,0,0,1,1.3.479,1.809,1.809,0,0,1,.5,1.354v7.573a3.253,3.253,0,0,1-.682,2.251,3.028,3.028,0,0,1-2.344.808Zm-2.616,0H49.276V205.609H51.05v10.71h2.987Zm-13.947,0,1.756-12.465H44.4l1.756,12.465h-1.71l-.431-3.112H42.231l-.431,3.112Zm3.035-11.023-.455,4.194-.187,1.969h1.284l-.2-1.969Zm-6,11.023H34.659a3.035,3.035,0,0,1-2.344-.808,3.25,3.25,0,0,1-.682-2.251v-7.573a1.811,1.811,0,0,1,.5-1.354,1.747,1.747,0,0,1,1.3-.479h1.882a1.778,1.778,0,0,1,1.317.485,1.812,1.812,0,0,1,.487,1.349v2.518H35.349v-2.454c0-.088-.059-.134-.179-.134H33.593c-.12,0-.182.046-.182.134v7.509a1.558,1.558,0,0,0,.26,1.036,1.358,1.358,0,0,0,.988.268h.69v-3.6H34.313v-1.755H37.12Z" transform="translate(-12.396 -80.574)" fill="#fff"/>
      <rect id="Rectangle_39" data-name="Rectangle 39" width="7.978" height="2.36" transform="translate(50.796 88.217)" fill="#fff"/>
      <rect id="Rectangle_40" data-name="Rectangle 40" width="4.318" height="1.277" transform="translate(83.382 122.804)" fill="#fff"/>
    </g>
  </g>
</svg>
