<svg xmlns="http://www.w3.org/2000/svg" width="44.03" height="51.095" viewBox="0 0 44.03 51.095">
  <path id="Path_28" data-name="Path 28" d="M41.274,18.747V11.7l-9.63-4.554h0L22.015,2.6,2.755,11.7V39.394l19.262,9.1,9.628-4.552h0l9.63-4.555V26.453h-5.3V24.2H44.03V40.688L22.013,51.1l-11-5.2h0L0,40.685V10.41L11.008,5.205h0L22.012,0,44.028,10.407v8.34Zm-5.355.047V14.868L22.013,8.553,8.11,14.868v2.953L38.673,32.186v5.582L22.015,45.335,5.357,37.767V32.522H8.111v3.927l13.905,6.317,13.9-6.317V33.49L5.355,19.125V13.549L22.013,5.982l16.658,7.568v5.245H35.917Z" fill="#2f434b"/>
</svg>
