<svg id="sg_logo-02" xmlns="http://www.w3.org/2000/svg" width="337.07" height="51.095" viewBox="0 0 337.07 51.095">
  <path id="Path_28" data-name="Path 28" d="M41.274,18.747V11.7l-9.63-4.554h0L22.015,2.6,2.755,11.7V39.394l19.262,9.1,9.628-4.552h0l9.63-4.555V26.453h-5.3V24.2H44.03V40.688L22.013,51.1l-11-5.2h0L0,40.685V10.41L11.008,5.205h0L22.012,0,44.028,10.407v8.34Zm-5.355.047V14.868L22.013,8.553,8.11,14.868v2.953L38.673,32.186v5.582L22.015,45.335,5.357,37.767V32.522H8.111v3.927l13.905,6.317,13.9-6.317V33.49L5.355,19.125V13.549L22.013,5.982l16.658,7.568v5.245H35.917Z" fill="#2f434b"/>
  <g id="Group_7" data-name="Group 7" transform="translate(75.526 4.486)">
    <path id="Path_29" data-name="Path 29" d="M457.294,105.542h-5.987V87.449h-6.57v18.093H438.75V63.42h5.987V81.513h6.57V63.42h5.987v42.12Z" transform="translate(-438.75 -63.42)" fill="#2f434b"/>
    <path id="Path_30" data-name="Path 30" d="M613.84,63.42a5.982,5.982,0,0,1,4.424,1.615,6.191,6.191,0,0,1,1.67,4.584V99.342a6.135,6.135,0,0,1-1.67,4.582,5.975,5.975,0,0,1-4.424,1.615h-6.358a5.68,5.68,0,0,1-6.092-6.2V69.621a6.145,6.145,0,0,1,1.694-4.584,5.946,5.946,0,0,1,4.4-1.615h6.358Zm-5.827,5.961c-.407,0-.609.151-.609.451v29.3c0,.318.2.478.609.478h5.325c.405,0,.609-.16.609-.478v-29.3c0-.3-.2-.451-.609-.451Z" transform="translate(-572.835 -63.42)" fill="#2f434b"/>
    <path id="Path_31" data-name="Path 31" d="M773.5,100.437l1.828-14.755,3.894-22.252h7.048l2.012,42.12h-5.906l-.769-28.9-4.661,28.9H770.06l-4.661-28.9-.769,28.9h-5.88l1.986-42.12h7.048l3.894,22.252,1.828,14.755Z" transform="translate(-702.567 -63.428)" fill="#2f434b"/>
    <path id="Path_32" data-name="Path 32" d="M1000.626,105.542H984.6V63.42h16.026v5.961H990.587V81.514h10.039v5.934H990.587v12.16h10.039v5.934Z" transform="translate(-888.764 -63.42)" fill="#2f434b"/>
  </g>
  <g id="Group_8" data-name="Group 8" transform="translate(208.469 4.486)">
    <path id="Path_33" data-name="Path 33" d="M1212.95,105.542V63.42h12.45a5.949,5.949,0,0,1,4.4,1.615,6.136,6.136,0,0,1,1.7,4.584V95.211q0,5.059-2.305,7.6-2.491,2.728-7.92,2.728h-8.317Zm5.987-5.934h2.33q2.492,0,3.366-.953.875-.9.874-3.443V69.832c0-.3-.211-.451-.635-.451h-5.934Z" transform="translate(-1212.95 -63.42)" fill="#2f434b"/>
    <path id="Path_34" data-name="Path 34" d="M1391.316,105.542H1375.29V63.42h16.026v5.961h-10.039V81.514h10.039v5.934h-10.039v12.16h10.039v5.934Z" transform="translate(-1346.788 -63.42)" fill="#2f434b"/>
    <path id="Path_35" data-name="Path 35" d="M1520.932,105.55a5.983,5.983,0,0,1-4.424-1.615,6.14,6.14,0,0,1-1.668-4.582V69.629a6.2,6.2,0,0,1,1.668-4.584,5.984,5.984,0,0,1,4.424-1.615h6.305a5.982,5.982,0,0,1,4.424,1.615,6.192,6.192,0,0,1,1.67,4.584v8.5h-5.961V69.84c0-.3-.2-.451-.609-.451h-5.325c-.407,0-.609.151-.609.451v29.3c0,.318.2.478.609.478h5.325c.407,0,.609-.16.609-.478V90.846h5.961v8.5a6.136,6.136,0,0,1-1.67,4.582,5.975,5.975,0,0,1-4.424,1.615h-6.305Z" transform="translate(-1461.837 -63.428)" fill="#2f434b"/>
    <path id="Path_36" data-name="Path 36" d="M1689.61,63.42a5.982,5.982,0,0,1,4.425,1.615,6.191,6.191,0,0,1,1.67,4.584V99.342a6.135,6.135,0,0,1-1.67,4.582,5.975,5.975,0,0,1-4.425,1.615h-6.357a5.68,5.68,0,0,1-6.092-6.2V69.621a6.144,6.144,0,0,1,1.694-4.584,5.946,5.946,0,0,1,4.4-1.615h6.357Zm-5.827,5.961c-.407,0-.609.151-.609.451v29.3c0,.318.2.478.609.478h5.325c.405,0,.609-.16.609-.478v-29.3c0-.3-.2-.451-.609-.451Z" transform="translate(-1595.658 -63.42)" fill="#2f434b"/>
    <path id="Path_37" data-name="Path 37" d="M1852.25,63.42a6.015,6.015,0,0,1,4.451,1.643,6.16,6.16,0,0,1,1.643,4.558v6.914a11.19,11.19,0,0,1-1.166,5.588,4.573,4.573,0,0,1-3.789,2.358,4.572,4.572,0,0,1,3.789,2.356,11.218,11.218,0,0,1,1.166,5.588V105.54h-5.987V91.817q0-2.515-.875-3.417-.874-.953-3.365-.953h-2.33V105.54H1839.8V63.42Zm-6.463,18.093h2.33q2.491,0,3.365-.953.875-.9.875-3.417V69.832q0-.45-.609-.451h-5.961V81.514Z" transform="translate(-1729.742 -63.42)" fill="#2f434b"/>
  </g>
</svg>
